<svg width="1400" height="840" viewBox="0 0 1400 840" xmlns="http://www.w3.org/2000/svg">
  <defs>
    <linearGradient id="bg" x1="0" y1="0" x2="1" y2="1">
      <stop offset="0" stop-color="#051521"/>
      <stop offset="0.45" stop-color="#10345C"/>
      <stop offset="1" stop-color="#1E0D47"/>
    </linearGradient>
    <clipPath id="racketHeadOfficial">
      <path d="M120 44C153 44 182 58 200 82C215 102 222 126 222 154C222 190 206 217 180 238C162 253 142 266 120 278C98 266 78 253 60 238C34 217 18 190 18 154C18 126 25 102 40 82C58 58 87 44 120 44Z"/>
    </clipPath>
  </defs>

  <rect width="1400" height="840" fill="url(#bg)"/>
  <circle cx="1140" cy="120" r="230" fill="#ffe066" opacity="0.2"/>
  <circle cx="210" cy="720" r="280" fill="#22d3ee" opacity="0.28"/>
  <circle cx="760" cy="110" r="220" fill="#34d399" opacity="0.2"/>

  <path d="M0 185L1400 35" stroke="#ffd400" stroke-opacity="0.4" stroke-width="12"/>
  <path d="M0 265L1400 115" stroke="#00e5ff" stroke-opacity="0.4" stroke-width="12"/>
  <path d="M0 345L1400 195" stroke="#38bdf8" stroke-opacity="0.28" stroke-width="10"/>

  <!-- Court frame (kept in same direction style as tennis card) -->
  <g transform="rotate(-7 525 390)">
    <rect x="110" y="120" width="830" height="540" rx="28" fill="#0a1830" stroke="#8ce99a" stroke-width="4"/>
    <rect x="145" y="160" width="760" height="460" rx="14" fill="#0e3b34"/>

    <!-- Rotate court markings 90deg so perspective matches tennis card -->
    <g transform="rotate(90 525 390)">
      <!-- Doubles outer boundary -->
      <rect x="360" y="40" width="330" height="700" fill="none" stroke="#eaffea" stroke-width="4"/>

      <!-- Singles sidelines (0.46m in from each doubles sideline) -->
      <line x1="385" y1="40" x2="385" y2="740" stroke="#eaffea" stroke-width="3"/>
      <line x1="665" y1="40" x2="665" y2="740" stroke="#eaffea" stroke-width="3"/>

      <!-- Net line (middle of court length) -->
      <line x1="360" y1="390" x2="690" y2="390" stroke="#fff8dc" stroke-width="4"/>

      <!-- Short service lines (1.98m from net each side, scaled) -->
      <line x1="385" y1="286" x2="665" y2="286" stroke="#eaffea" stroke-width="3"/>
      <line x1="385" y1="494" x2="665" y2="494" stroke="#eaffea" stroke-width="3"/>

      <!-- Long service lines for doubles (0.76m in from back boundary, scaled) -->
      <line x1="360" y1="80" x2="690" y2="80" stroke="#eaffea" stroke-width="3"/>
      <line x1="360" y1="700" x2="690" y2="700" stroke="#eaffea" stroke-width="3"/>

      <!-- Center service line (official: does not touch net; runs short-service to long-service on each half) -->
      <line x1="525" y1="40" x2="525" y2="286" stroke="#eaffea" stroke-width="3"/>
      <line x1="525" y1="494" x2="525" y2="740" stroke="#eaffea" stroke-width="3"/>

      <!-- Net band + mesh (same direction style as tennis net) -->
      <rect x="360" y="384" width="330" height="12" fill="#f8fafc"/>
      <path d="M360 384H690M360 388H690M360 392H690M360 396H690" stroke="#cbd5e1" stroke-width="1.2"/>
      <path d="M384 382V398M414 382V398M444 382V398M474 382V398M504 382V398M534 382V398M564 382V398M594 382V398M624 382V398M654 382V398" stroke="#e2e8f0" stroke-width="1.2"/>
      <rect x="354" y="368" width="8" height="44" rx="3" fill="#d1d5db"/>
      <rect x="688" y="368" width="8" height="44" rx="3" fill="#d1d5db"/>
    </g>
  </g>

  <!-- Racket (modern profile, equal head/shaft/handle lengths) -->
  <g transform="translate(955 150) rotate(16)">
    <!-- single frame layer -->
    <path d="M120 44C153 44 182 58 200 82C215 102 222 126 222 154C222 190 206 217 180 238C162 253 142 266 120 278C98 266 78 253 60 238C34 217 18 190 18 154C18 126 25 102 40 82C58 58 87 44 120 44Z" fill="#10243f" stroke="#f8fafc" stroke-width="7"/>

    <!-- string bed clipped to head shape -->
    <g clip-path="url(#racketHeadOfficial)" stroke="#e6eef9" stroke-width="1.5" opacity="0.95">
      <line x1="70" y1="66" x2="70" y2="252"/>
      <line x1="84" y1="60" x2="84" y2="260"/>
      <line x1="98" y1="56" x2="98" y2="266"/>
      <line x1="112" y1="54" x2="112" y2="270"/>
      <line x1="126" y1="54" x2="126" y2="270"/>
      <line x1="140" y1="56" x2="140" y2="266"/>
      <line x1="154" y1="60" x2="154" y2="260"/>
      <line x1="168" y1="66" x2="168" y2="252"/>

      <line x1="48" y1="94" x2="192" y2="94"/>
      <line x1="42" y1="114" x2="198" y2="114"/>
      <line x1="38" y1="134" x2="202" y2="134"/>
      <line x1="36" y1="154" x2="204" y2="154"/>
      <line x1="38" y1="174" x2="202" y2="174"/>
      <line x1="44" y1="194" x2="196" y2="194"/>
      <line x1="54" y1="214" x2="186" y2="214"/>
    </g>

    <!-- T-joint + shaft (reduced) -->
    <rect x="106" y="278" width="28" height="18" rx="7" fill="#dbe7f5"/>
    <rect x="113" y="296" width="14" height="150" rx="7" fill="#f8fafc"/>

    <!-- handle (reduced) -->
    <rect x="109" y="446" width="22" height="150" rx="11" fill="#b7793b"/>

    <!-- grip wrapping -->
    <g stroke="#fde68a" stroke-width="2">
      <line x1="111" y1="464" x2="129" y2="474"/>
      <line x1="111" y1="490" x2="129" y2="500"/>
      <line x1="111" y1="516" x2="129" y2="526"/>
      <line x1="111" y1="542" x2="129" y2="552"/>
      <line x1="111" y1="568" x2="129" y2="578"/>
    </g>
  </g>

  <!-- Shuttlecock -->
  <g transform="translate(1125 230) rotate(-22)">
    <ellipse cx="0" cy="0" rx="16" ry="11" fill="#f8fafc"/>
    <rect x="-10" y="-4" width="20" height="3.5" rx="1.75" fill="#ff0000"/>
    <ellipse cx="0" cy="0" rx="9" ry="6" fill="#dbe5f0"/>
    <path d="M-36 -64L-10 -8" stroke="#f8fafc" stroke-width="7" stroke-linecap="round"/>
    <path d="M-22 -70L-5 -8" stroke="#f8fafc" stroke-width="7" stroke-linecap="round"/>
    <path d="M-7 -74L-2 -8" stroke="#f8fafc" stroke-width="7" stroke-linecap="round"/>
    <path d="M8 -74L2 -8" stroke="#f8fafc" stroke-width="7" stroke-linecap="round"/>
    <path d="M23 -70L5 -8" stroke="#f8fafc" stroke-width="7" stroke-linecap="round"/>
    <path d="M37 -64L10 -8" stroke="#f8fafc" stroke-width="7" stroke-linecap="round"/>
  </g>
</svg>
