<svg width="1200" height="675" viewBox="0 0 1200 675" fill="none" xmlns="http://www.w3.org/2000/svg">
  <defs>
    <linearGradient id="bg" x1="0" y1="0" x2="1200" y2="675" gradientUnits="userSpaceOnUse">
      <stop stop-color="#102a43"/>
      <stop offset="0.5" stop-color="#1f7a8c"/>
      <stop offset="1" stop-color="#0b132b"/>
    </linearGradient>
    <radialGradient id="glow" cx="0" cy="0" r="1" gradientUnits="userSpaceOnUse" gradientTransform="translate(840 180) rotate(137.5) scale(390 260)">
      <stop stop-color="#fbbf24" stop-opacity="0.7"/>
      <stop offset="1" stop-color="#fbbf24" stop-opacity="0"/>
    </radialGradient>
  </defs>
  <rect width="1200" height="675" fill="url(#bg)"/>
  <rect width="1200" height="675" fill="url(#glow)"/>
  <g opacity="0.24" stroke="#FDE68A" stroke-width="2">
    <path d="M0 520C180 440 280 400 520 410C760 420 980 540 1200 520"/>
    <path d="M0 560C220 500 360 470 600 485C860 500 1020 580 1200 565"/>
  </g>
  <g transform="translate(700 120) rotate(-18)">
    <ellipse cx="180" cy="80" rx="78" ry="50" fill="#F8FAFC"/>
    <ellipse cx="180" cy="80" rx="48" ry="28" fill="#E2E8F0"/>
    <rect x="40" y="65" width="100" height="30" rx="10" fill="#CBD5E1"/>
    <path d="M40 80L-80 20" stroke="#94A3B8" stroke-width="12" stroke-linecap="round"/>
    <path d="M36 84L-86 26" stroke="#FDE68A" stroke-width="4" stroke-linecap="round" opacity="0.8"/>
  </g>
  <g fill="#FDE68A" opacity="0.8">
    <circle cx="190" cy="150" r="3"/>
    <circle cx="320" cy="90" r="2"/>
    <circle cx="1050" cy="120" r="3"/>
    <circle cx="980" cy="210" r="2"/>
    <circle cx="880" cy="80" r="2"/>
  </g>
  <text x="64" y="596" fill="#FDE68A" font-family="Arial, sans-serif" font-size="72" font-weight="700">BADMINTON</text>
</svg>
