<svg width="1400" height="840" viewBox="0 0 1400 840" xmlns="http://www.w3.org/2000/svg">
  <defs>
    <linearGradient id="bg" x1="0" y1="0" x2="1" y2="1">
      <stop offset="0" stop-color="#051521"/>
      <stop offset="0.45" stop-color="#10345C"/>
      <stop offset="1" stop-color="#1E0D47"/>
    </linearGradient>
    <clipPath id="racketHeadOfficial">
      <path d="M120 54C171 54 210 101 210 166C210 231 171 275 120 308C69 275 30 231 30 166C30 101 69 54 120 54Z"/>
    </clipPath>
  </defs>

  <rect width="1400" height="840" fill="url(#bg)"/>
  <circle cx="1140" cy="120" r="230" fill="#ffe066" opacity="0.2"/>
  <circle cx="210" cy="720" r="280" fill="#22d3ee" opacity="0.28"/>
  <circle cx="760" cy="110" r="220" fill="#34d399" opacity="0.2"/>

  <path d="M0 185L1400 35" stroke="#ffd400" stroke-opacity="0.4" stroke-width="12"/>
  <path d="M0 265L1400 115" stroke="#00e5ff" stroke-opacity="0.4" stroke-width="12"/>
  <path d="M0 345L1400 195" stroke="#38bdf8" stroke-opacity="0.28" stroke-width="10"/>

  <!-- Court frame (kept in same direction style as tennis card) -->
  <g transform="rotate(-7 525 390)">
    <rect x="110" y="120" width="830" height="540" rx="28" fill="#0a1830" stroke="#8ce99a" stroke-width="4"/>
    <rect x="145" y="160" width="760" height="460" rx="14" fill="#0e3b34"/>

    <!-- Rotate court markings 90deg so perspective matches tennis card -->
    <g transform="rotate(90 525 390)">
      <!-- Doubles outer boundary -->
      <rect x="360" y="40" width="330" height="700" fill="none" stroke="#eaffea" stroke-width="4"/>

      <!-- Singles sidelines (0.46m in from each doubles sideline) -->
      <line x1="385" y1="40" x2="385" y2="740" stroke="#eaffea" stroke-width="3"/>
      <line x1="665" y1="40" x2="665" y2="740" stroke="#eaffea" stroke-width="3"/>

      <!-- Net line (middle of court length) -->
      <line x1="360" y1="390" x2="690" y2="390" stroke="#fff8dc" stroke-width="4"/>

      <!-- Short service lines (1.98m from net each side, scaled) -->
      <line x1="385" y1="286" x2="665" y2="286" stroke="#eaffea" stroke-width="3"/>
      <line x1="385" y1="494" x2="665" y2="494" stroke="#eaffea" stroke-width="3"/>

      <!-- Long service lines for doubles (0.76m in from back boundary, scaled) -->
      <line x1="360" y1="80" x2="690" y2="80" stroke="#eaffea" stroke-width="3"/>
      <line x1="360" y1="700" x2="690" y2="700" stroke="#eaffea" stroke-width="3"/>

      <!-- Center service line (official: does not touch net; runs short-service to long-service on each half) -->
      <line x1="525" y1="40" x2="525" y2="286" stroke="#eaffea" stroke-width="3"/>
      <line x1="525" y1="494" x2="525" y2="740" stroke="#eaffea" stroke-width="3"/>

      <!-- Net band + mesh (same direction style as tennis net) -->
      <rect x="360" y="384" width="330" height="12" fill="#f8fafc"/>
      <path d="M360 384H690M360 388H690M360 392H690M360 396H690" stroke="#cbd5e1" stroke-width="1.2"/>
      <path d="M384 382V398M414 382V398M444 382V398M474 382V398M504 382V398M534 382V398M564 382V398M594 382V398M624 382V398M654 382V398" stroke="#e2e8f0" stroke-width="1.2"/>
      <rect x="354" y="368" width="8" height="44" rx="3" fill="#d1d5db"/>
      <rect x="688" y="368" width="8" height="44" rx="3" fill="#d1d5db"/>
    </g>
  </g>

  <!-- Racket (official-style badminton frame) -->
  <g transform="translate(955 150) rotate(16)">
    <!-- outer carbon frame -->
    <path d="M120 54C171 54 210 101 210 166C210 231 171 275 120 308C69 275 30 231 30 166C30 101 69 54 120 54Z" fill="#10243f"/>
    <path d="M120 54C171 54 210 101 210 166C210 231 171 275 120 308C69 275 30 231 30 166C30 101 69 54 120 54Z" fill="none" stroke="#f8fafc" stroke-width="7"/>

    <!-- inner grommet ring -->
    <path d="M120 72C160 72 190 110 190 166C190 221 160 258 120 286C80 258 50 221 50 166C50 110 80 72 120 72Z" fill="none" stroke="#b7c8df" stroke-width="2"/>

    <!-- string bed clipped to official head shape -->
    <g clip-path="url(#racketHeadOfficial)" stroke="#e6eef9" stroke-width="1.6" opacity="0.95">
      <line x1="66" y1="76" x2="66" y2="280"/>
      <line x1="82" y1="68" x2="82" y2="288"/>
      <line x1="98" y1="63" x2="98" y2="294"/>
      <line x1="114" y1="60" x2="114" y2="298"/>
      <line x1="130" y1="60" x2="130" y2="298"/>
      <line x1="146" y1="63" x2="146" y2="294"/>
      <line x1="162" y1="68" x2="162" y2="288"/>
      <line x1="178" y1="76" x2="178" y2="280"/>

      <line x1="46" y1="104" x2="194" y2="104"/>
      <line x1="40" y1="128" x2="200" y2="128"/>
      <line x1="36" y1="152" x2="204" y2="152"/>
      <line x1="34" y1="176" x2="206" y2="176"/>
      <line x1="36" y1="200" x2="204" y2="200"/>
      <line x1="42" y1="224" x2="198" y2="224"/>
      <line x1="52" y1="248" x2="188" y2="248"/>
    </g>

    <!-- T-joint + shaft -->
    <rect x="106" y="300" width="28" height="22" rx="8" fill="#dbe7f5"/>
    <rect x="112" y="320" width="16" height="80" rx="7" fill="#f8fafc"/>
    <rect x="108" y="400" width="24" height="74" rx="12" fill="#b7793b"/>

    <!-- grip wrapping -->
    <g stroke="#fde68a" stroke-width="2">
      <line x1="110" y1="414" x2="130" y2="426"/>
      <line x1="110" y1="434" x2="130" y2="446"/>
      <line x1="110" y1="454" x2="130" y2="466"/>
    </g>
  </g>

  <!-- Shuttlecock -->
  <g transform="translate(1125 230) rotate(-22)">
    <ellipse cx="0" cy="0" rx="16" ry="11" fill="#f8fafc"/>
    <rect x="-10" y="-4" width="20" height="3.5" rx="1.75" fill="#0a0a0a"/>
    <ellipse cx="0" cy="0" rx="9" ry="6" fill="#dbe5f0"/>
    <path d="M-36 -64L-10 -8" stroke="#f8fafc" stroke-width="7" stroke-linecap="round"/>
    <path d="M-22 -70L-5 -8" stroke="#f8fafc" stroke-width="7" stroke-linecap="round"/>
    <path d="M-7 -74L-2 -8" stroke="#f8fafc" stroke-width="7" stroke-linecap="round"/>
    <path d="M8 -74L2 -8" stroke="#f8fafc" stroke-width="7" stroke-linecap="round"/>
    <path d="M23 -70L5 -8" stroke="#f8fafc" stroke-width="7" stroke-linecap="round"/>
    <path d="M37 -64L10 -8" stroke="#f8fafc" stroke-width="7" stroke-linecap="round"/>
  </g>
</svg>
