<svg width="1400" height="840" viewBox="0 0 1400 840" xmlns="http://www.w3.org/2000/svg">
  <defs>
    <linearGradient id="bg" x1="0" y1="0" x2="1" y2="1">
      <stop offset="0" stop-color="#12001F"/>
      <stop offset="0.4" stop-color="#1a1f4f"/>
      <stop offset="1" stop-color="#250a3b"/>
    </linearGradient>
  </defs>
  <rect width="1400" height="840" fill="url(#bg)"/>
  <circle cx="1120" cy="120" r="260" fill="#7c3aed" opacity="0.35"/>
  <circle cx="220" cy="700" r="280" fill="#06b6d4" opacity="0.28"/>

  <g transform="translate(190 140)">
    <rect x="0" y="0" width="700" height="560" rx="24" fill="#0b1020" stroke="#a78bfa" stroke-width="4"/>
    <g transform="translate(40 40)">
      <rect x="0" y="0" width="620" height="480" fill="#111827"/>
      <g fill="#a78bfa" opacity="0.25">
        <rect x="0" y="0" width="77.5" height="60"/>
        <rect x="155" y="0" width="77.5" height="60"/>
        <rect x="310" y="0" width="77.5" height="60"/>
        <rect x="465" y="0" width="77.5" height="60"/>
        <rect x="77.5" y="60" width="77.5" height="60"/>
        <rect x="232.5" y="60" width="77.5" height="60"/>
        <rect x="387.5" y="60" width="77.5" height="60"/>
        <rect x="542.5" y="60" width="77.5" height="60"/>
        <rect x="0" y="120" width="77.5" height="60"/>
        <rect x="155" y="120" width="77.5" height="60"/>
        <rect x="310" y="120" width="77.5" height="60"/>
        <rect x="465" y="120" width="77.5" height="60"/>
        <rect x="77.5" y="180" width="77.5" height="60"/>
        <rect x="232.5" y="180" width="77.5" height="60"/>
        <rect x="387.5" y="180" width="77.5" height="60"/>
        <rect x="542.5" y="180" width="77.5" height="60"/>
        <rect x="0" y="240" width="77.5" height="60"/>
        <rect x="155" y="240" width="77.5" height="60"/>
        <rect x="310" y="240" width="77.5" height="60"/>
        <rect x="465" y="240" width="77.5" height="60"/>
        <rect x="77.5" y="300" width="77.5" height="60"/>
        <rect x="232.5" y="300" width="77.5" height="60"/>
        <rect x="387.5" y="300" width="77.5" height="60"/>
        <rect x="542.5" y="300" width="77.5" height="60"/>
        <rect x="0" y="360" width="77.5" height="60"/>
        <rect x="155" y="360" width="77.5" height="60"/>
        <rect x="310" y="360" width="77.5" height="60"/>
        <rect x="465" y="360" width="77.5" height="60"/>
        <rect x="77.5" y="420" width="77.5" height="60"/>
        <rect x="232.5" y="420" width="77.5" height="60"/>
        <rect x="387.5" y="420" width="77.5" height="60"/>
        <rect x="542.5" y="420" width="77.5" height="60"/>
      </g>
      <rect x="0" y="0" width="620" height="480" fill="none" stroke="#e5e7eb" stroke-opacity="0.45" stroke-width="3"/>
    </g>
  </g>

  <g transform="translate(980 180)">
    <path d="M120 30h40v26h-14v16h14v18h-54V72h14V56h-14z" fill="#f8fafc"/>
    <path d="M96 120h88l-8 26h-72z" fill="#f8fafc"/>
    <path d="M86 156h108v24H86z" fill="#f8fafc"/>
    <path d="M78 188h124v22H78z" fill="#f8fafc"/>
    <rect x="136" y="210" width="18" height="176" rx="8" fill="#f59e0b"/>
  </g>
</svg>
