<svg width="1400" height="840" viewBox="0 0 1400 840" xmlns="http://www.w3.org/2000/svg">
  <defs>
    <linearGradient id="bg" x1="0" y1="0" x2="1" y2="1">
      <stop offset="0" stop-color="#12001F"/>
      <stop offset="0.4" stop-color="#1a1f4f"/>
      <stop offset="1" stop-color="#250a3b"/>
    </linearGradient>
  </defs>
  <rect width="1400" height="840" fill="url(#bg)"/>
  <circle cx="1120" cy="120" r="260" fill="#7c3aed" opacity="0.35"/>
  <circle cx="220" cy="700" r="280" fill="#06b6d4" opacity="0.28"/>

  <g transform="translate(190 140)">
    <rect x="0" y="0" width="700" height="560" rx="24" fill="#0f172a" stroke="#c4b5fd" stroke-width="4"/>
    <g transform="translate(40 40)">
      <rect x="0" y="0" width="620" height="480" fill="#1b2433"/>
      <g fill="#d8b4fe" opacity="0.56">
        <rect x="0" y="0" width="77.5" height="60"/>
        <rect x="155" y="0" width="77.5" height="60"/>
        <rect x="310" y="0" width="77.5" height="60"/>
        <rect x="465" y="0" width="77.5" height="60"/>
        <rect x="77.5" y="60" width="77.5" height="60"/>
        <rect x="232.5" y="60" width="77.5" height="60"/>
        <rect x="387.5" y="60" width="77.5" height="60"/>
        <rect x="542.5" y="60" width="77.5" height="60"/>
        <rect x="0" y="120" width="77.5" height="60"/>
        <rect x="155" y="120" width="77.5" height="60"/>
        <rect x="310" y="120" width="77.5" height="60"/>
        <rect x="465" y="120" width="77.5" height="60"/>
        <rect x="77.5" y="180" width="77.5" height="60"/>
        <rect x="232.5" y="180" width="77.5" height="60"/>
        <rect x="387.5" y="180" width="77.5" height="60"/>
        <rect x="542.5" y="180" width="77.5" height="60"/>
        <rect x="0" y="240" width="77.5" height="60"/>
        <rect x="155" y="240" width="77.5" height="60"/>
        <rect x="310" y="240" width="77.5" height="60"/>
        <rect x="465" y="240" width="77.5" height="60"/>
        <rect x="77.5" y="300" width="77.5" height="60"/>
        <rect x="232.5" y="300" width="77.5" height="60"/>
        <rect x="387.5" y="300" width="77.5" height="60"/>
        <rect x="542.5" y="300" width="77.5" height="60"/>
        <rect x="0" y="360" width="77.5" height="60"/>
        <rect x="155" y="360" width="77.5" height="60"/>
        <rect x="310" y="360" width="77.5" height="60"/>
        <rect x="465" y="360" width="77.5" height="60"/>
        <rect x="77.5" y="420" width="77.5" height="60"/>
        <rect x="232.5" y="420" width="77.5" height="60"/>
        <rect x="387.5" y="420" width="77.5" height="60"/>
        <rect x="542.5" y="420" width="77.5" height="60"/>
      </g>
      <rect x="0" y="0" width="620" height="480" fill="none" stroke="#e5e7eb" stroke-opacity="0.45" stroke-width="3"/>
    </g>
  </g>

  <g transform="translate(968 148)">
    <rect x="146" y="34" width="14" height="34" rx="4" fill="#dbe3f1"/>
    <rect x="136" y="44" width="34" height="14" rx="4" fill="#dbe3f1"/>
    <path d="M126 74h54c0 22-4 34-14 46 22 14 30 30 30 56h-86c0-26 8-42 30-56-10-12-14-24-14-46z" fill="#dbe3f1"/>
    <path d="M96 204h114l-10 28h-94z" fill="#dbe3f1"/>
    <rect x="84" y="232" width="138" height="24" rx="4" fill="#dbe3f1"/>
    <rect x="72" y="258" width="162" height="24" rx="4" fill="#dbe3f1"/>
    <ellipse cx="153" cy="296" rx="94" ry="10" fill="#a78bfa" opacity="0.32"/>
  </g>
</svg>
