<svg width="1400" height="840" viewBox="0 0 1400 840" xmlns="http://www.w3.org/2000/svg">
  <defs>
    <linearGradient id="bg" x1="0" y1="0" x2="1" y2="1">
      <stop offset="0" stop-color="#12001F"/>
      <stop offset="0.4" stop-color="#1a1f4f"/>
      <stop offset="1" stop-color="#250a3b"/>
    </linearGradient>
  </defs>
  <rect width="1400" height="840" fill="url(#bg)"/>
  <circle cx="1120" cy="120" r="260" fill="#7c3aed" opacity="0.35"/>
  <circle cx="220" cy="700" r="280" fill="#06b6d4" opacity="0.28"/>

  <g transform="translate(190 140)">
    <rect x="0" y="0" width="700" height="560" rx="24" fill="#0f172a" stroke="#c4b5fd" stroke-width="4"/>
    <g transform="translate(40 40)">
      <rect x="0" y="0" width="620" height="480" fill="#1f2937"/>
      <g fill="#e9d5ff" opacity="0.72">
        <rect x="0" y="0" width="77.5" height="60"/>
        <rect x="155" y="0" width="77.5" height="60"/>
        <rect x="310" y="0" width="77.5" height="60"/>
        <rect x="465" y="0" width="77.5" height="60"/>
        <rect x="77.5" y="60" width="77.5" height="60"/>
        <rect x="232.5" y="60" width="77.5" height="60"/>
        <rect x="387.5" y="60" width="77.5" height="60"/>
        <rect x="542.5" y="60" width="77.5" height="60"/>
        <rect x="0" y="120" width="77.5" height="60"/>
        <rect x="155" y="120" width="77.5" height="60"/>
        <rect x="310" y="120" width="77.5" height="60"/>
        <rect x="465" y="120" width="77.5" height="60"/>
        <rect x="77.5" y="180" width="77.5" height="60"/>
        <rect x="232.5" y="180" width="77.5" height="60"/>
        <rect x="387.5" y="180" width="77.5" height="60"/>
        <rect x="542.5" y="180" width="77.5" height="60"/>
        <rect x="0" y="240" width="77.5" height="60"/>
        <rect x="155" y="240" width="77.5" height="60"/>
        <rect x="310" y="240" width="77.5" height="60"/>
        <rect x="465" y="240" width="77.5" height="60"/>
        <rect x="77.5" y="300" width="77.5" height="60"/>
        <rect x="232.5" y="300" width="77.5" height="60"/>
        <rect x="387.5" y="300" width="77.5" height="60"/>
        <rect x="542.5" y="300" width="77.5" height="60"/>
        <rect x="0" y="360" width="77.5" height="60"/>
        <rect x="155" y="360" width="77.5" height="60"/>
        <rect x="310" y="360" width="77.5" height="60"/>
        <rect x="465" y="360" width="77.5" height="60"/>
        <rect x="77.5" y="420" width="77.5" height="60"/>
        <rect x="232.5" y="420" width="77.5" height="60"/>
        <rect x="387.5" y="420" width="77.5" height="60"/>
        <rect x="542.5" y="420" width="77.5" height="60"/>
      </g>
      <rect x="0" y="0" width="620" height="480" fill="none" stroke="#e5e7eb" stroke-opacity="0.45" stroke-width="3"/>
    </g>
  </g>

  <g transform="translate(962 154)">
    <path d="M158 72c28 0 52 18 52 48 0 19-10 31-26 42-8 6-12 11-12 20h-62c0-26 15-43 32-56 8-6 12-12 12-20 0-10-7-16-18-16-9 0-18 4-25 10l-23-32c14-12 40-24 70-24z" fill="#f8fafc"/>
    <circle cx="184" cy="56" r="14" fill="#f8fafc"/>
    <path d="M94 206h120l-12 30h-96z" fill="#f8fafc"/>
    <rect x="82" y="236" width="144" height="26" rx="4" fill="#f8fafc"/>
    <rect x="70" y="264" width="168" height="24" rx="4" fill="#f8fafc"/>
    <ellipse cx="154" cy="302" rx="96" ry="10" fill="#a78bfa" opacity="0.45"/>
  </g>
</svg>
