<svg width="1200" height="700" viewBox="0 0 1200 700" fill="none" xmlns="http://www.w3.org/2000/svg">
  <defs>
    <linearGradient id="bg2" x1="0" y1="0" x2="1" y2="1">
      <stop offset="0%" stop-color="#0A1020"/>
      <stop offset="60%" stop-color="#13233C"/>
      <stop offset="100%" stop-color="#1E293B"/>
    </linearGradient>
    <radialGradient id="field" cx="0.5" cy="0.5" r="0.6">
      <stop offset="0%" stop-color="#4ADE80"/>
      <stop offset="100%" stop-color="#15803D"/>
    </radialGradient>
  </defs>

  <rect width="1200" height="700" fill="url(#bg2)"/>
  <circle cx="1040" cy="140" r="170" fill="#22D3EE" opacity="0.18"/>
  <circle cx="140" cy="560" r="210" fill="#A855F7" opacity="0.16"/>

  <ellipse cx="600" cy="430" rx="520" ry="220" fill="url(#field)"/>
  <ellipse cx="600" cy="430" rx="220" ry="94" fill="#D6B77A" opacity="0.92"/>
  <rect x="560" y="350" width="80" height="160" rx="22" fill="#CBA46B"/>

  <g transform="translate(210 180)">
    <path d="M0 120C0 52 54 0 122 0H176C244 0 298 52 298 120V194H0V120Z" fill="#475569"/>
    <rect x="34" y="108" width="230" height="110" rx="52" fill="#64748B"/>
    <rect x="80" y="136" width="138" height="50" rx="24" fill="#111827"/>
    <rect x="137" y="194" width="24" height="40" rx="11" fill="#334155"/>
  </g>

  <g transform="translate(820 165) rotate(14)">
    <rect x="64" y="20" width="92" height="290" rx="22" fill="#E2B47D"/>
    <rect x="96" y="300" width="30" height="120" rx="14" fill="#C98B56"/>
    <line x1="82" y1="72" x2="138" y2="72" stroke="#F3D7B3" stroke-width="3"/>
    <line x1="82" y1="112" x2="138" y2="112" stroke="#F3D7B3" stroke-width="3"/>
    <line x1="82" y1="152" x2="138" y2="152" stroke="#F3D7B3" stroke-width="3"/>
  </g>

  <g transform="translate(980 540)">
    <circle cx="0" cy="0" r="38" fill="#DC2626"/>
    <path d="M-24 -18L24 18" stroke="#FFFFFF" stroke-width="4"/>
    <path d="M-24 18L24 -18" stroke="#FFFFFF" stroke-width="4"/>
  </g>
</svg>
