<svg width="1400" height="840" viewBox="0 0 1400 840" fill="none" xmlns="http://www.w3.org/2000/svg">
  <defs>
    <linearGradient id="bg" x1="0" y1="0" x2="1" y2="1">
      <stop offset="0" stop-color="#070B14"/>
      <stop offset="0.6" stop-color="#111F34"/>
      <stop offset="1" stop-color="#1E293B"/>
    </linearGradient>
    <radialGradient id="light" cx="0" cy="0" r="1" gradientUnits="userSpaceOnUse" gradientTransform="translate(1080 130) rotate(128) scale(420 300)">
      <stop stop-color="#22D3EE" stop-opacity="0.42"/>
      <stop offset="1" stop-color="#22D3EE" stop-opacity="0"/>
    </radialGradient>
    <radialGradient id="field" cx="0" cy="0" r="1" gradientUnits="userSpaceOnUse" gradientTransform="translate(610 470) rotate(90) scale(280 560)">
      <stop stop-color="#4ADE80"/>
      <stop offset="1" stop-color="#166534"/>
    </radialGradient>
  </defs>

  <rect width="1400" height="840" fill="url(#bg)"/>
  <rect width="1400" height="840" fill="url(#light)"/>

  <ellipse cx="620" cy="500" rx="560" ry="250" fill="url(#field)"/>
  <ellipse cx="620" cy="500" rx="230" ry="100" fill="#D6B77A" fill-opacity="0.95"/>
  <rect x="575" y="410" width="90" height="178" rx="24" fill="#C79A5C"/>

  <g transform="translate(250 210)">
    <path d="M0 120C0 50 58 0 128 0H184C254 0 312 50 312 120V202H0V120Z" fill="#475569"/>
    <rect x="38" y="108" width="236" height="116" rx="56" fill="#64748B"/>
    <rect x="90" y="140" width="132" height="48" rx="23" fill="#0F172A"/>
    <rect x="145" y="201" width="22" height="41" rx="10" fill="#334155"/>
  </g>

  <g transform="translate(900 180) rotate(14)">
    <rect x="60" y="12" width="98" height="300" rx="24" fill="#E3B57A"/>
    <rect x="95" y="306" width="32" height="124" rx="14" fill="#C7864D"/>
    <line x1="80" y1="72" x2="140" y2="72" stroke="#F4D9B8" stroke-width="3"/>
    <line x1="80" y1="114" x2="140" y2="114" stroke="#F4D9B8" stroke-width="3"/>
    <line x1="80" y1="156" x2="140" y2="156" stroke="#F4D9B8" stroke-width="3"/>
  </g>

  <g transform="translate(1180 630)">
    <circle cx="0" cy="0" r="42" fill="#DC2626"/>
    <path d="M-26 -20L26 20" stroke="#fff" stroke-width="4"/>
    <path d="M-26 20L26 -20" stroke="#fff" stroke-width="4"/>
  </g>
</svg>
