<svg width="1400" height="840" viewBox="0 0 1400 840" fill="none" xmlns="http://www.w3.org/2000/svg">
  <defs>
    <linearGradient id="bg" x1="0" y1="0" x2="1" y2="1">
      <stop offset="0" stop-color="#060A18"/>
      <stop offset="0.48" stop-color="#17346A"/>
      <stop offset="1" stop-color="#5E1F91"/>
    </linearGradient>
    <radialGradient id="g1" cx="0" cy="0" r="1" gradientUnits="userSpaceOnUse" gradientTransform="translate(1080 120) rotate(130) scale(560 360)">
      <stop stop-color="#00E5FF" stop-opacity="0.78"/>
      <stop offset="1" stop-color="#00E5FF" stop-opacity="0"/>
    </radialGradient>
    <radialGradient id="g2" cx="0" cy="0" r="1" gradientUnits="userSpaceOnUse" gradientTransform="translate(160 640) rotate(20) scale(560 340)">
      <stop stop-color="#C084FC" stop-opacity="0.65"/>
      <stop offset="1" stop-color="#C084FC" stop-opacity="0"/>
    </radialGradient>
    <radialGradient id="g3" cx="0" cy="0" r="1" gradientUnits="userSpaceOnUse" gradientTransform="translate(780 40) rotate(90) scale(240 640)">
      <stop stop-color="#F59E0B" stop-opacity="0.26"/>
      <stop offset="1" stop-color="#F59E0B" stop-opacity="0"/>
    </radialGradient>
    <radialGradient id="field" cx="0" cy="0" r="1" gradientUnits="userSpaceOnUse" gradientTransform="translate(620 500) rotate(90) scale(290 570)">
      <stop stop-color="#4ADE80"/>
      <stop offset="1" stop-color="#15803D"/>
    </radialGradient>
  </defs>

  <rect width="1400" height="840" fill="url(#bg)"/>
  <rect width="1400" height="840" fill="url(#g1)"/>
  <rect width="1400" height="840" fill="url(#g2)"/>
  <rect width="1400" height="840" fill="url(#g3)"/>

  <path d="M0 200L1400 95" stroke="#F59E0B" stroke-opacity="0.22" stroke-width="10"/>
  <path d="M0 280L1400 170" stroke="#22D3EE" stroke-opacity="0.2" stroke-width="10"/>
  <path d="M0 350L1400 230" stroke="#C084FC" stroke-opacity="0.19" stroke-width="10"/>

  <ellipse cx="620" cy="500" rx="560" ry="250" fill="url(#field)"/>
  <ellipse cx="620" cy="500" rx="230" ry="100" fill="#D6B77A" fill-opacity="0.95"/>
  <rect x="575" y="410" width="90" height="178" rx="24" fill="#C79A5C"/>

  <g transform="translate(250 210)">
    <path d="M0 120C0 50 58 0 128 0H184C254 0 312 50 312 120V202H0V120Z" fill="#475569"/>
    <rect x="38" y="108" width="236" height="116" rx="56" fill="#64748B"/>
    <rect x="90" y="140" width="132" height="48" rx="23" fill="#0F172A"/>
  </g>

  <g transform="translate(900 180) rotate(14)">
    <rect x="60" y="12" width="98" height="300" rx="24" fill="#E3B57A"/>
    <rect x="95" y="306" width="32" height="124" rx="14" fill="#C7864D"/>
  </g>

  <g transform="translate(1180 630)">
    <circle cx="0" cy="0" r="42" fill="#EF4444"/>
    <path d="M-26 -20L26 20" stroke="#fff" stroke-width="4"/>
    <path d="M-26 20L26 -20" stroke="#fff" stroke-width="4"/>
  </g>
</svg>
