<svg width="1400" height="840" viewBox="0 0 1400 840" xmlns="http://www.w3.org/2000/svg">
<defs>
  <linearGradient id="bg" x1="0" y1="0" x2="1" y2="1">
    <stop offset="0" stop-color="#090015"/>
    <stop offset="0.35" stop-color="#003566"/>
    <stop offset="0.7" stop-color="#34115e"/>
    <stop offset="1" stop-color="#5c003e"/>
  </linearGradient>
  <radialGradient id="field" cx="0.5" cy="0.5" r="0.68">
    <stop offset="0" stop-color="#2FA24A"/>
    <stop offset="0.6" stop-color="#166534"/>
    <stop offset="1" stop-color="#0B5F2A"/>
  </radialGradient>
  <radialGradient id="fieldShade" cx="0.45" cy="0.55" r="0.7">
    <stop offset="0" stop-color="#000000" stop-opacity="0"/>
    <stop offset="1" stop-color="#000000" stop-opacity="0.38"/>
  </radialGradient>
</defs>
<rect width="1400" height="840" fill="url(#bg)"/>
<circle cx="1120" cy="130" r="260" fill="#00e5ff" opacity="0.55"/>
<circle cx="170" cy="690" r="290" fill="#d870ff" opacity="0.5"/>
<circle cx="760" cy="80" r="230" fill="#ffb703" opacity="0.25"/>
<path d="M0 190L1400 45" stroke="#ffb703" stroke-opacity="0.35" stroke-width="14"/>
<path d="M0 270L1400 125" stroke="#00e5ff" stroke-opacity="0.35" stroke-width="14"/>
<path d="M0 350L1400 205" stroke="#ff4fd8" stroke-opacity="0.35" stroke-width="14"/>
<ellipse cx="620" cy="520" rx="560" ry="250" fill="#06371a" opacity="0.55"/>
<ellipse cx="620" cy="500" rx="560" ry="250" fill="url(#field)"/>
<ellipse cx="620" cy="500" rx="560" ry="250" fill="url(#fieldShade)"/>
<ellipse cx="620" cy="500" rx="230" ry="100" fill="#c69557"/>
<rect x="430" y="468" width="380" height="64" rx="28" fill="#c88e50"/>
<rect x="448" y="482" width="344" height="36" rx="16" fill="#d8a467" opacity="0.75"/>
<g fill="#f5e6c8">
  <rect x="444" y="474" width="8" height="46" rx="2"/>
  <rect x="458" y="474" width="8" height="46" rx="2"/>
  <rect x="472" y="474" width="8" height="46" rx="2"/>
  <rect x="442" y="470" width="40" height="6" rx="3"/>
  <rect x="758" y="474" width="8" height="46" rx="2"/>
  <rect x="772" y="474" width="8" height="46" rx="2"/>
  <rect x="786" y="474" width="8" height="46" rx="2"/>
  <rect x="756" y="470" width="40" height="6" rx="3"/>
</g>
<!-- Flood lights -->
<g>
  <!-- Left tower -->
  <rect x="170" y="220" width="20" height="290" rx="8" fill="#9fb3c8" opacity="0.9"/>
  <rect x="145" y="210" width="70" height="20" rx="6" fill="#cfd8e3"/>
  <circle cx="155" cy="220" r="8" fill="#fff7cc"/>
  <circle cx="173" cy="220" r="8" fill="#fff7cc"/>
  <circle cx="191" cy="220" r="8" fill="#fff7cc"/>
  <circle cx="209" cy="220" r="8" fill="#fff7cc"/>
  <circle cx="180" cy="260" r="130" fill="#fff5b5" opacity="0.15"/>

  <!-- Right tower -->
  <rect x="1130" y="210" width="20" height="300" rx="8" fill="#9fb3c8" opacity="0.9"/>
  <rect x="1105" y="200" width="70" height="20" rx="6" fill="#cfd8e3"/>
  <circle cx="1115" cy="210" r="8" fill="#fff7cc"/>
  <circle cx="1133" cy="210" r="8" fill="#fff7cc"/>
  <circle cx="1151" cy="210" r="8" fill="#fff7cc"/>
  <circle cx="1169" cy="210" r="8" fill="#fff7cc"/>
  <circle cx="1140" cy="250" r="140" fill="#fff5b5" opacity="0.16"/>
</g>

<g transform="translate(900 180) rotate(14)">
  <rect x="60" y="12" width="98" height="300" rx="24" fill="#ebb97d"/>
  <rect x="95" y="306" width="32" height="124" rx="14" fill="#ce8749"/>
</g>
<g transform="translate(1035 560)">
  <defs>
    <radialGradient id="cricketBall" cx="0.35" cy="0.3" r="0.75">
      <stop offset="0" stop-color="#ff8a80"/>
      <stop offset="0.45" stop-color="#d62626"/>
      <stop offset="1" stop-color="#7f1111"/>
    </radialGradient>
  </defs>
  <circle cx="0" cy="0" r="35" fill="url(#cricketBall)"/>
  <ellipse cx="-10" cy="-12" rx="8" ry="5" fill="#ffd1d1" opacity="0.45"/>
  <path d="M-3 -30C8 -14 8 14 -3 30" stroke="#fff5f5" stroke-width="3" fill="none"/>
  <path d="M1 -27L5 -23M2 -20L8 -14M3 -13L9 -7M4 -6L10 0M4 1L10 7M3 8L9 14M2 15L8 21M1 22L5 26" stroke="#fff5f5" stroke-width="1.8" stroke-linecap="round"/>
  <path d="M-7 -27L-11 -23M-8 -20L-14 -14M-9 -13L-15 -7M-10 -6L-16 0M-10 1L-16 7M-9 8L-15 14M-8 15L-14 21M-7 22L-11 26" stroke="#fff5f5" stroke-width="1.8" stroke-linecap="round"/>
</g>
</svg>