<svg width="1400" height="840" viewBox="0 0 1400 840" xmlns="http://www.w3.org/2000/svg">
<defs>
  <linearGradient id="bg" x1="0" y1="0" x2="1" y2="1">
    <stop offset="0" stop-color="#090015"/>
    <stop offset="0.35" stop-color="#003566"/>
    <stop offset="0.7" stop-color="#34115e"/>
    <stop offset="1" stop-color="#5c003e"/>
  </linearGradient>
  <radialGradient id="field" cx="0.5" cy="0.5" r="0.68">
    <stop offset="0" stop-color="#2FA24A"/>
    <stop offset="0.6" stop-color="#166534"/>
    <stop offset="1" stop-color="#0B5F2A"/>
  </radialGradient>
  <radialGradient id="fieldShade" cx="0.45" cy="0.55" r="0.7">
    <stop offset="0" stop-color="#000000" stop-opacity="0"/>
    <stop offset="1" stop-color="#000000" stop-opacity="0.38"/>
  </radialGradient>
</defs>
<rect width="1400" height="840" fill="url(#bg)"/>
<circle cx="1120" cy="130" r="260" fill="#00e5ff" opacity="0.55"/>
<circle cx="170" cy="690" r="290" fill="#d870ff" opacity="0.5"/>
<circle cx="760" cy="80" r="230" fill="#ffb703" opacity="0.25"/>
<path d="M0 190L1400 45" stroke="#ffb703" stroke-opacity="0.35" stroke-width="14"/>
<path d="M0 270L1400 125" stroke="#00e5ff" stroke-opacity="0.35" stroke-width="14"/>
<path d="M0 350L1400 205" stroke="#ff4fd8" stroke-opacity="0.35" stroke-width="14"/>
<ellipse cx="620" cy="520" rx="560" ry="250" fill="#06371a" opacity="0.55"/>
<ellipse cx="620" cy="500" rx="560" ry="250" fill="url(#field)"/>
<ellipse cx="620" cy="500" rx="560" ry="250" fill="url(#fieldShade)"/>
<ellipse cx="620" cy="500" rx="230" ry="100" fill="#c69557"/>
<rect x="430" y="468" width="380" height="64" rx="28" fill="#c88e50"/>
<rect x="448" y="482" width="344" height="36" rx="16" fill="#d8a467" opacity="0.75"/>
<g fill="#f5e6c8">
  <rect x="448" y="448" width="8" height="46" rx="2"/>
  <rect x="462" y="448" width="8" height="46" rx="2"/>
  <rect x="476" y="448" width="8" height="46" rx="2"/>
  <rect x="446" y="444" width="40" height="6" rx="3"/>
  <rect x="754" y="506" width="8" height="46" rx="2"/>
  <rect x="768" y="506" width="8" height="46" rx="2"/>
  <rect x="782" y="506" width="8" height="46" rx="2"/>
  <rect x="752" y="552" width="40" height="6" rx="3"/>
</g>
<g transform="translate(250 210)">
  <path d="M0 120C0 50 58 0 128 0H184C254 0 312 50 312 120V202H0V120Z" fill="#55657a"/>
  <rect x="38" y="108" width="236" height="116" rx="56" fill="#7a8ba1"/>
  <path d="M88 126C98 106 124 96 156 96C188 96 214 106 224 126V146H88V126Z" fill="#4b5563"/>
  <rect x="90" y="132" width="132" height="48" rx="22" fill="#0f172a"/>
  <g transform="translate(74 144)">
    <path d="M16 4H136C148 4 158 14 158 26V74C158 90 146 102 130 102H22C10 102 0 92 0 80V20C0 11 7 4 16 4Z" fill="none" stroke="#e2e8f0" stroke-width="4"/>
    <path d="M20 22H138" stroke="#cbd5e1" stroke-width="3" stroke-linecap="round"/>
    <path d="M18 34V92M38 30V96M58 28V98M78 28V98M98 28V98M118 30V96M138 34V92" stroke="#f8fafc" stroke-width="2.8" stroke-linecap="round"/>
    <path d="M8 48H150M8 64H150M10 80H148" stroke="#94a3b8" stroke-width="2.2" stroke-linecap="round"/>
    <path d="M24 102H126" stroke="#cbd5e1" stroke-width="5" stroke-linecap="round"/>
  </g>
</g>
<g transform="translate(900 180) rotate(14)">
  <rect x="60" y="12" width="98" height="300" rx="24" fill="#ebb97d"/>
  <rect x="95" y="306" width="32" height="124" rx="14" fill="#ce8749"/>
</g>
<g transform="translate(1035 560)">
  <defs>
    <radialGradient id="cricketBall" cx="0.35" cy="0.3" r="0.75">
      <stop offset="0" stop-color="#ff8a80"/>
      <stop offset="0.45" stop-color="#d62626"/>
      <stop offset="1" stop-color="#7f1111"/>
    </radialGradient>
  </defs>
  <circle cx="0" cy="0" r="35" fill="url(#cricketBall)"/>
  <ellipse cx="-10" cy="-12" rx="8" ry="5" fill="#ffd1d1" opacity="0.45"/>
  <path d="M-3 -30C8 -14 8 14 -3 30" stroke="#fff5f5" stroke-width="3" fill="none"/>
  <path d="M1 -27L5 -23M2 -20L8 -14M3 -13L9 -7M4 -6L10 0M4 1L10 7M3 8L9 14M2 15L8 21M1 22L5 26" stroke="#fff5f5" stroke-width="1.8" stroke-linecap="round"/>
  <path d="M-7 -27L-11 -23M-8 -20L-14 -14M-9 -13L-15 -7M-10 -6L-16 0M-10 1L-16 7M-9 8L-15 14M-8 15L-14 21M-7 22L-11 26" stroke="#fff5f5" stroke-width="1.8" stroke-linecap="round"/>
</g>
</svg>