<svg width="1400" height="840" viewBox="0 0 1400 840" xmlns="http://www.w3.org/2000/svg">
  <defs>
    <linearGradient id="bg" x1="0" y1="0" x2="1" y2="1">
      <stop offset="0" stop-color="#031018"/>
      <stop offset="0.45" stop-color="#0B2D4A"/>
      <stop offset="1" stop-color="#1F5D2E"/>
    </linearGradient>
    <radialGradient id="glow1" cx="0" cy="0" r="1" gradientUnits="userSpaceOnUse" gradientTransform="translate(1140 120) rotate(125) scale(520 320)">
      <stop stop-color="#22D3EE" stop-opacity="0.55"/>
      <stop offset="1" stop-color="#22D3EE" stop-opacity="0"/>
    </radialGradient>
    <radialGradient id="glow2" cx="0" cy="0" r="1" gradientUnits="userSpaceOnUse" gradientTransform="translate(180 700) rotate(20) scale(560 340)">
      <stop stop-color="#A3E635" stop-opacity="0.45"/>
      <stop offset="1" stop-color="#A3E635" stop-opacity="0"/>
    </radialGradient>
  </defs>

  <rect width="1400" height="840" fill="url(#bg)"/>
  <rect width="1400" height="840" fill="url(#glow1)"/>
  <rect width="1400" height="840" fill="url(#glow2)"/>

  <ellipse cx="680" cy="620" rx="700" ry="260" fill="#0B5F2A"/>
  <ellipse cx="680" cy="620" rx="360" ry="120" fill="#2FA24A"/>

  <path d="M900 260L930 620" stroke="#E5E7EB" stroke-width="10"/>
  <path d="M930 260L1020 300L930 340Z" fill="#F59E0B"/>

  <g transform="translate(860 575)">
    <circle cx="0" cy="0" r="24" fill="#fff"/>
    <circle cx="-7" cy="-6" r="2" fill="#CBD5E1"/>
    <circle cx="4" cy="-8" r="2" fill="#CBD5E1"/>
    <circle cx="8" cy="5" r="2" fill="#CBD5E1"/>
  </g>

  <g transform="translate(240 250)">
    <circle cx="130" cy="80" r="52" fill="#0F172A"/>
    <rect x="112" y="124" width="38" height="150" rx="16" fill="#111827"/>
    <rect x="80" y="182" width="145" height="34" rx="14" fill="#0B1220"/>
    <path d="M215 146L420 100" stroke="#E2E8F0" stroke-width="12" stroke-linecap="round"/>
    <path d="M420 100L462 112" stroke="#D1D5DB" stroke-width="16" stroke-linecap="round"/>
  </g>

  <path d="M0 190L1400 80" stroke="#22D3EE" stroke-opacity="0.2" stroke-width="10"/>
  <path d="M0 260L1400 150" stroke="#A3E635" stroke-opacity="0.18" stroke-width="10"/>
</svg>
