<svg width="1600" height="900" viewBox="0 0 1600 900" fill="none" xmlns="http://www.w3.org/2000/svg">
  <defs>
    <linearGradient id="bg" x1="0" y1="0" x2="1600" y2="900" gradientUnits="userSpaceOnUse">
      <stop offset="0" stop-color="#052e16"/>
      <stop offset="0.55" stop-color="#0a4a2d"/>
      <stop offset="1" stop-color="#071a2e"/>
    </linearGradient>
    <radialGradient id="glow" cx="0" cy="0" r="1" gradientUnits="userSpaceOnUse" gradientTransform="translate(800 450) rotate(90) scale(480 760)">
      <stop stop-color="#86efac" stop-opacity="0.35"/>
      <stop offset="1" stop-color="#86efac" stop-opacity="0"/>
    </radialGradient>
  </defs>

  <rect width="1600" height="900" fill="url(#bg)"/>
  <rect width="1600" height="900" fill="url(#glow)"/>

  <g stroke="rgba(255,255,255,0.32)" stroke-width="6" fill="none">
    <rect x="90" y="70" width="1420" height="760" rx="22"/>
    <line x1="800" y1="70" x2="800" y2="830"/>
    <circle cx="800" cy="450" r="118"/>
    <circle cx="800" cy="450" r="4" fill="rgba(255,255,255,0.55)"/>
    <rect x="90" y="255" width="220" height="390"/>
    <rect x="1290" y="255" width="220" height="390"/>
    <rect x="90" y="335" width="90" height="230"/>
    <rect x="1420" y="335" width="90" height="230"/>
    <circle cx="230" cy="450" r="4" fill="rgba(255,255,255,0.55)"/>
    <circle cx="1370" cy="450" r="4" fill="rgba(255,255,255,0.55)"/>
    <path d="M310 380Q390 450 310 520"/>
    <path d="M1290 380Q1210 450 1290 520"/>
  </g>

  <g transform="translate(1210 610)">
    <ellipse cx="120" cy="128" rx="88" ry="20" fill="rgba(0,0,0,0.30)"/>

    <circle cx="120" cy="110" r="84" fill="#ffffff"/>
    <circle cx="120" cy="110" r="84" stroke="rgba(15,23,42,0.25)" stroke-width="5"/>
    <circle cx="95" cy="84" r="22" fill="rgba(255,255,255,0.35)"/>

    <path d="M120 76L141 90L133 114H107L99 90L120 76Z" fill="#111827"/>

    <path d="M107 114L89 134L61 128L56 102L78 88L107 114Z" fill="#1f2937"/>
    <path d="M133 114L162 88L184 102L179 128L151 134L133 114Z" fill="#1f2937"/>
    <path d="M89 134L98 164L80 186L54 176L50 148L67 132L89 134Z" fill="#1f2937"/>
    <path d="M151 134L173 132L190 148L186 176L160 186L142 164L151 134Z" fill="#1f2937"/>

    <path d="M120 76L120 48M78 88L58 72M162 88L182 72M98 164L92 194M142 164L148 194" stroke="rgba(17,24,39,0.40)" stroke-width="3.5" stroke-linecap="round"/>
  </g>
</svg>
