<svg width="1400" height="840" viewBox="0 0 1400 840" xmlns="http://www.w3.org/2000/svg">
<defs>
  <linearGradient id="bg" x1="0" y1="0" x2="1" y2="1">
    <stop offset="0" stop-color="#12001F"/>
    <stop offset="0.35" stop-color="#001B5E"/>
    <stop offset="0.7" stop-color="#2A005A"/>
    <stop offset="1" stop-color="#5E003A"/>
  </linearGradient>
  <clipPath id="racketHead">
    <ellipse cx="120" cy="175" rx="84" ry="110"/>
  </clipPath>
</defs>
<rect width="1400" height="840" fill="url(#bg)"/>
<circle cx="1180" cy="120" r="260" fill="#ff2ea6" opacity="0.55"/>
<circle cx="180" cy="700" r="300" fill="#00e5ff" opacity="0.55"/>
<circle cx="690" cy="90" r="220" fill="#b8ff00" opacity="0.25"/>
<path d="M0 180L1400 30" stroke="#ffd400" stroke-opacity="0.35" stroke-width="14"/>
<path d="M0 260L1400 110" stroke="#00f0ff" stroke-opacity="0.35" stroke-width="14"/>
<path d="M0 340L1400 190" stroke="#ff4fd8" stroke-opacity="0.35" stroke-width="14"/>
<g transform="rotate(-7 525 390)">
  <rect x="110" y="120" width="830" height="540" rx="28" fill="#09172d" stroke="#7df9ff" stroke-width="4"/>
  <rect x="145" y="160" width="760" height="460" rx="14" fill="#0f2850"/>
  <!-- Same court turned 90° to fit the card boundary orientation -->
  <g transform="rotate(90 525 390)">
    <rect x="363.5" y="40" width="323" height="700" fill="none" stroke="#9ff" stroke-width="4"/>
    <line x1="403.875" y1="40" x2="403.875" y2="740" stroke="#9ff" stroke-width="4"/>
    <line x1="646.125" y1="40" x2="646.125" y2="740" stroke="#9ff" stroke-width="4"/>
    <line x1="403.875" y1="201.538" x2="646.125" y2="201.538" stroke="#9ff" stroke-width="4"/>
    <line x1="403.875" y1="578.462" x2="646.125" y2="578.462" stroke="#9ff" stroke-width="4"/>
    <line x1="525" y1="201.538" x2="525" y2="578.462" stroke="#9ff" stroke-width="4"/>
    <line x1="525" y1="40" x2="525" y2="43" stroke="#9ff" stroke-width="4"/>
    <line x1="525" y1="740" x2="525" y2="737" stroke="#9ff" stroke-width="4"/>
    <rect x="363.5" y="384" width="323" height="12" fill="#f8fafc"/>
    <path d="M363.5 384H686.5M363.5 388H686.5M363.5 392H686.5M363.5 396H686.5" stroke="#cbd5e1" stroke-width="1.2"/>
    <path d="M387 382V398M417 382V398M447 382V398M477 382V398M507 382V398M537 382V398M567 382V398M597 382V398M627 382V398M657 382V398" stroke="#e2e8f0" stroke-width="1.2"/>
    <rect x="357.5" y="368" width="8" height="44" rx="3" fill="#d1d5db"/>
    <rect x="684.5" y="368" width="8" height="44" rx="3" fill="#d1d5db"/>
  </g>
</g>
<g transform="translate(965 160) rotate(18)">
  <ellipse cx="120" cy="175" rx="94" ry="120" fill="none" stroke="#fff" stroke-width="14"/>
  <g clip-path="url(#racketHead)">
    <path d="M48 68V282M72 62V288M96 58V292M120 56V294M144 58V292M168 62V288M192 68V282" stroke="#cbd5e1" stroke-width="2" opacity="0.9"/>
    <path d="M34 106H206M30 136H210M28 166H212M30 196H210M34 226H206" stroke="#cbd5e1" stroke-width="2" opacity="0.9"/>
  </g>
  <path d="M46 248C66 270 86 292 110 334" stroke="#ffffff" stroke-width="14" stroke-linecap="round" fill="none" opacity="1"/>
  <path d="M194 248C174 270 154 292 130 334" stroke="#ffffff" stroke-width="14" stroke-linecap="round" fill="none" opacity="1"/>
  <rect x="108" y="334" width="24" height="134" rx="12" fill="#ff9f1a"/>
</g>
<g transform="translate(1160 620)">
  <circle cx="0" cy="0" r="48" fill="#c8ff2c"/>
  <path d="M-36 -12C-22 -28 22 -28 36 -12" stroke="#fff" stroke-width="5" fill="none"/>
  <path d="M-36 12C-22 28 22 28 36 12" stroke="#fff" stroke-width="5" fill="none"/>
</g>
</svg>