<svg width="1400" height="840" viewBox="0 0 1400 840" fill="none" xmlns="http://www.w3.org/2000/svg">
  <defs>
    <linearGradient id="bg" x1="0" y1="0" x2="1" y2="1">
      <stop offset="0" stop-color="#070814"/>
      <stop offset="0.45" stop-color="#161B3B"/>
      <stop offset="1" stop-color="#3B1360"/>
    </linearGradient>
    <radialGradient id="pinkGlow" cx="0" cy="0" r="1" gradientUnits="userSpaceOnUse" gradientTransform="translate(1120 120) rotate(120) scale(500 340)">
      <stop stop-color="#F472B6" stop-opacity="0.65"/>
      <stop offset="1" stop-color="#F472B6" stop-opacity="0"/>
    </radialGradient>
    <radialGradient id="cyanGlow" cx="0" cy="0" r="1" gradientUnits="userSpaceOnUse" gradientTransform="translate(180 680) rotate(20) scale(520 320)">
      <stop stop-color="#22D3EE" stop-opacity="0.5"/>
      <stop offset="1" stop-color="#22D3EE" stop-opacity="0"/>
    </radialGradient>
    <linearGradient id="court" x1="130" y1="130" x2="940" y2="640">
      <stop stop-color="#0B223A"/>
      <stop offset="1" stop-color="#0A1328"/>
    </linearGradient>
    <filter id="neon" x="-30%" y="-30%" width="160%" height="160%">
      <feGaussianBlur stdDeviation="6" result="glow"/>
      <feMerge><feMergeNode in="glow"/><feMergeNode in="SourceGraphic"/></feMerge>
    </filter>
  </defs>

  <rect width="1400" height="840" fill="url(#bg)"/>
  <rect width="1400" height="840" fill="url(#pinkGlow)"/>
  <rect width="1400" height="840" fill="url(#cyanGlow)"/>

  <rect x="120" y="118" width="820" height="540" rx="30" fill="url(#court)" stroke="#67E8F9" stroke-opacity="0.65" stroke-width="3"/>
  <line x1="530" y1="148" x2="530" y2="628" stroke="#A5F3FC" stroke-width="3" filter="url(#neon)"/>
  <line x1="150" y1="388" x2="910" y2="388" stroke="#A5F3FC" stroke-width="3" filter="url(#neon)"/>
  <rect x="150" y="244" width="760" height="288" stroke="#A5F3FC" stroke-opacity="0.9" stroke-width="3"/>
  <line x1="330" y1="244" x2="330" y2="532" stroke="#A5F3FC" stroke-width="3"/>
  <line x1="730" y1="244" x2="730" y2="532" stroke="#A5F3FC" stroke-width="3"/>
  <rect x="150" y="380" width="760" height="16" fill="#E2E8F0"/>

  <path d="M0 210L1400 90" stroke="#F59E0B" stroke-opacity="0.18" stroke-width="8"/>
  <path d="M0 270L1400 150" stroke="#22D3EE" stroke-opacity="0.16" stroke-width="8"/>

  <g transform="translate(960 160) rotate(18)">
    <ellipse cx="120" cy="175" rx="94" ry="120" fill="none" stroke="#F8FAFC" stroke-width="13"/>
    <rect x="106" y="286" width="28" height="178" rx="14" fill="#F59E0B"/>
    <line x1="52" y1="132" x2="188" y2="132" stroke="#CBD5E1" stroke-width="3"/>
    <line x1="52" y1="166" x2="188" y2="166" stroke="#CBD5E1" stroke-width="3"/>
    <line x1="52" y1="200" x2="188" y2="200" stroke="#CBD5E1" stroke-width="3"/>
    <line x1="86" y1="86" x2="86" y2="264" stroke="#CBD5E1" stroke-width="3"/>
    <line x1="120" y1="76" x2="120" y2="274" stroke="#CBD5E1" stroke-width="3"/>
    <line x1="154" y1="86" x2="154" y2="264" stroke="#CBD5E1" stroke-width="3"/>
  </g>

  <g transform="translate(1160 620)">
    <circle cx="0" cy="0" r="46" fill="#BEF264"/>
    <path d="M-36 -12C-22 -28 22 -28 36 -12" stroke="#fff" stroke-width="5" fill="none"/>
    <path d="M-36 12C-22 28 22 28 36 12" stroke="#fff" stroke-width="5" fill="none"/>
  </g>
</svg>
