<svg width="1200" height="700" viewBox="0 0 1200 700" fill="none" xmlns="http://www.w3.org/2000/svg">
  <defs>
    <linearGradient id="sky" x1="0" y1="0" x2="0" y2="1">
      <stop offset="0%" stop-color="#0D1B2A"/>
      <stop offset="100%" stop-color="#1B263B"/>
    </linearGradient>
    <linearGradient id="court" x1="0" y1="0" x2="1" y2="1">
      <stop offset="0%" stop-color="#0A7A6B"/>
      <stop offset="100%" stop-color="#075C52"/>
    </linearGradient>
  </defs>

  <rect width="1200" height="700" fill="url(#sky)"/>
  <rect x="70" y="120" width="1060" height="520" rx="30" fill="url(#court)" stroke="#9FE8D8" stroke-width="4"/>

  <line x1="600" y1="120" x2="600" y2="640" stroke="#D8FFF7" stroke-width="4"/>
  <line x1="70" y1="380" x2="1130" y2="380" stroke="#D8FFF7" stroke-width="4"/>
  <rect x="70" y="250" width="1060" height="260" stroke="#D8FFF7" stroke-width="4" fill="none"/>
  <line x1="300" y1="250" x2="300" y2="510" stroke="#D8FFF7" stroke-width="4"/>
  <line x1="900" y1="250" x2="900" y2="510" stroke="#D8FFF7" stroke-width="4"/>

  <rect x="120" y="365" width="960" height="10" fill="#F3F6FA" opacity="0.9"/>

  <g transform="translate(760 180) rotate(22)">
    <ellipse cx="120" cy="170" rx="75" ry="100" fill="none" stroke="#F9FAFB" stroke-width="14"/>
    <rect x="108" y="255" width="24" height="150" rx="12" fill="#C08457"/>
    <rect x="97" y="330" width="46" height="70" rx="20" fill="#A86A46"/>
    <line x1="60" y1="140" x2="180" y2="140" stroke="#D1D5DB" stroke-width="3"/>
    <line x1="60" y1="170" x2="180" y2="170" stroke="#D1D5DB" stroke-width="3"/>
    <line x1="60" y1="200" x2="180" y2="200" stroke="#D1D5DB" stroke-width="3"/>
    <line x1="120" y1="80" x2="120" y2="260" stroke="#D1D5DB" stroke-width="3"/>
    <line x1="90" y1="90" x2="90" y2="250" stroke="#D1D5DB" stroke-width="3"/>
    <line x1="150" y1="90" x2="150" y2="250" stroke="#D1D5DB" stroke-width="3"/>
  </g>

  <g transform="translate(930 500)">
    <circle cx="0" cy="0" r="34" fill="#E7F75A"/>
    <path d="M-28 -8C-18 -18 18 -18 28 -8" stroke="#FFFFFF" stroke-width="4" fill="none"/>
    <path d="M-28 8C-18 18 18 18 28 8" stroke="#FFFFFF" stroke-width="4" fill="none"/>
  </g>
</svg>
