<svg width="1200" height="700" viewBox="0 0 1200 700" fill="none" xmlns="http://www.w3.org/2000/svg">
  <defs>
    <linearGradient id="bg" x1="0" y1="0" x2="1" y2="1">
      <stop offset="0%" stop-color="#090B1A"/>
      <stop offset="55%" stop-color="#11182D"/>
      <stop offset="100%" stop-color="#1A0E2E"/>
    </linearGradient>
    <linearGradient id="court" x1="0" y1="0" x2="1" y2="1">
      <stop offset="0%" stop-color="#00D1B2"/>
      <stop offset="100%" stop-color="#00A3FF"/>
    </linearGradient>
    <filter id="glow" x="-20%" y="-20%" width="140%" height="140%">
      <feGaussianBlur stdDeviation="8" result="b"/>
      <feMerge><feMergeNode in="b"/><feMergeNode in="SourceGraphic"/></feMerge>
    </filter>
  </defs>

  <rect width="1200" height="700" fill="url(#bg)"/>
  <circle cx="1020" cy="120" r="180" fill="#6D28D9" opacity="0.35"/>
  <circle cx="170" cy="580" r="200" fill="#06B6D4" opacity="0.22"/>

  <g transform="translate(120 120)">
    <rect x="0" y="0" width="760" height="440" rx="28" fill="#0E162A" stroke="#67E8F9" stroke-width="3"/>
    <rect x="26" y="24" width="708" height="392" rx="18" fill="url(#court)" opacity="0.35"/>
    <line x1="380" y1="24" x2="380" y2="416" stroke="#A5F3FC" stroke-width="3" filter="url(#glow)"/>
    <line x1="26" y1="220" x2="734" y2="220" stroke="#A5F3FC" stroke-width="3" filter="url(#glow)"/>
    <rect x="26" y="120" width="708" height="200" fill="none" stroke="#A5F3FC" stroke-width="3"/>
    <line x1="220" y1="120" x2="220" y2="320" stroke="#A5F3FC" stroke-width="3"/>
    <line x1="540" y1="120" x2="540" y2="320" stroke="#A5F3FC" stroke-width="3"/>
  </g>

  <g transform="translate(850 145) rotate(20)">
    <ellipse cx="115" cy="140" rx="90" ry="115" fill="none" stroke="#E5E7EB" stroke-width="13"/>
    <rect x="102" y="242" width="26" height="175" rx="12" fill="#F59E0B"/>
    <line x1="48" y1="100" x2="182" y2="100" stroke="#D1D5DB" stroke-width="3"/>
    <line x1="48" y1="130" x2="182" y2="130" stroke="#D1D5DB" stroke-width="3"/>
    <line x1="48" y1="160" x2="182" y2="160" stroke="#D1D5DB" stroke-width="3"/>
    <line x1="80" y1="50" x2="80" y2="228" stroke="#D1D5DB" stroke-width="3"/>
    <line x1="115" y1="40" x2="115" y2="238" stroke="#D1D5DB" stroke-width="3"/>
    <line x1="150" y1="50" x2="150" y2="228" stroke="#D1D5DB" stroke-width="3"/>
  </g>

  <g transform="translate(980 540)">
    <circle cx="0" cy="0" r="42" fill="#A3E635"/>
    <path d="M-34 -10C-20 -24 20 -24 34 -10" stroke="#FFFFFF" stroke-width="5" fill="none"/>
    <path d="M-34 10C-20 24 20 24 34 10" stroke="#FFFFFF" stroke-width="5" fill="none"/>
  </g>
</svg>
