<svg width="1400" height="840" viewBox="0 0 1400 840" fill="none" xmlns="http://www.w3.org/2000/svg">
  <defs>
    <linearGradient id="bg" x1="0" y1="0" x2="1" y2="1">
      <stop offset="0" stop-color="#090B22"/>
      <stop offset="0.45" stop-color="#1B1464"/>
      <stop offset="1" stop-color="#5B128F"/>
    </linearGradient>
    <radialGradient id="g1" cx="0" cy="0" r="1" gradientUnits="userSpaceOnUse" gradientTransform="translate(1120 120) rotate(120) scale(540 360)">
      <stop stop-color="#FF4FB3" stop-opacity="0.75"/>
      <stop offset="1" stop-color="#FF4FB3" stop-opacity="0"/>
    </radialGradient>
    <radialGradient id="g2" cx="0" cy="0" r="1" gradientUnits="userSpaceOnUse" gradientTransform="translate(180 680) rotate(20) scale(560 340)">
      <stop stop-color="#00E5FF" stop-opacity="0.7"/>
      <stop offset="1" stop-color="#00E5FF" stop-opacity="0"/>
    </radialGradient>
    <radialGradient id="g3" cx="0" cy="0" r="1" gradientUnits="userSpaceOnUse" gradientTransform="translate(700 40) rotate(90) scale(220 600)">
      <stop stop-color="#A3FF12" stop-opacity="0.24"/>
      <stop offset="1" stop-color="#A3FF12" stop-opacity="0"/>
    </radialGradient>
    <linearGradient id="court" x1="130" y1="130" x2="940" y2="640">
      <stop stop-color="#0D2440"/>
      <stop offset="1" stop-color="#0A1530"/>
    </linearGradient>
  </defs>

  <rect width="1400" height="840" fill="url(#bg)"/>
  <rect width="1400" height="840" fill="url(#g1)"/>
  <rect width="1400" height="840" fill="url(#g2)"/>
  <rect width="1400" height="840" fill="url(#g3)"/>

  <rect x="120" y="118" width="820" height="540" rx="30" fill="url(#court)" stroke="#67E8F9" stroke-opacity="0.8" stroke-width="3"/>
  <line x1="530" y1="148" x2="530" y2="628" stroke="#A5F3FC" stroke-width="3"/>
  <line x1="150" y1="388" x2="910" y2="388" stroke="#A5F3FC" stroke-width="3"/>
  <rect x="150" y="244" width="760" height="288" stroke="#A5F3FC" stroke-width="3"/>
  <line x1="330" y1="244" x2="330" y2="532" stroke="#A5F3FC" stroke-width="3"/>
  <line x1="730" y1="244" x2="730" y2="532" stroke="#A5F3FC" stroke-width="3"/>
  <rect x="150" y="380" width="760" height="16" fill="#E2E8F0"/>

  <path d="M0 200L1400 80" stroke="#FFB703" stroke-opacity="0.24" stroke-width="10"/>
  <path d="M0 270L1400 160" stroke="#00E5FF" stroke-opacity="0.22" stroke-width="10"/>
  <path d="M0 340L1400 220" stroke="#FF4FB3" stroke-opacity="0.2" stroke-width="10"/>

  <g transform="translate(960 160) rotate(18)">
    <ellipse cx="120" cy="175" rx="94" ry="120" fill="none" stroke="#F8FAFC" stroke-width="13"/>
    <rect x="106" y="286" width="28" height="178" rx="14" fill="#FFB703"/>
  </g>

  <g transform="translate(1160 620)">
    <circle cx="0" cy="0" r="46" fill="#A3FF12"/>
    <path d="M-36 -12C-22 -28 22 -28 36 -12" stroke="#fff" stroke-width="5" fill="none"/>
    <path d="M-36 12C-22 28 22 28 36 12" stroke="#fff" stroke-width="5" fill="none"/>
  </g>
</svg>
