<svg width="1400" height="840" viewBox="0 0 1400 840" xmlns="http://www.w3.org/2000/svg">
<defs>
  <linearGradient id="bg" x1="0" y1="0" x2="1" y2="1">
    <stop offset="0" stop-color="#12001F"/>
    <stop offset="0.35" stop-color="#001B5E"/>
    <stop offset="0.7" stop-color="#2A005A"/>
    <stop offset="1" stop-color="#5E003A"/>
  </linearGradient>
  <clipPath id="racketHead">
    <ellipse cx="120" cy="175" rx="84" ry="110"/>
  </clipPath>
</defs>
<rect width="1400" height="840" fill="url(#bg)"/>
<circle cx="1180" cy="120" r="260" fill="#ff2ea6" opacity="0.55"/>
<circle cx="180" cy="700" r="300" fill="#00e5ff" opacity="0.55"/>
<circle cx="690" cy="90" r="220" fill="#b8ff00" opacity="0.25"/>
<path d="M0 180L1400 30" stroke="#ffd400" stroke-opacity="0.35" stroke-width="14"/>
<path d="M0 260L1400 110" stroke="#00f0ff" stroke-opacity="0.35" stroke-width="14"/>
<path d="M0 340L1400 190" stroke="#ff4fd8" stroke-opacity="0.35" stroke-width="14"/>
<g transform="rotate(-7 525 390)">
  <rect x="110" y="120" width="830" height="540" rx="28" fill="#09172d" stroke="#7df9ff" stroke-width="4"/>
  <rect x="145" y="160" width="760" height="460" rx="14" fill="#0f2850"/>
  <!-- Official-style tennis court markings (doubles + singles + service boxes) -->
  <rect x="180" y="230" width="690" height="320" fill="none" stroke="#9ff" stroke-width="4"/>
  <line x1="266" y1="230" x2="266" y2="550" stroke="#9ff" stroke-width="4"/>
  <line x1="784" y1="230" x2="784" y2="550" stroke="#9ff" stroke-width="4"/>
  <line x1="180" y1="304" x2="870" y2="304" stroke="#9ff" stroke-width="4"/>
  <line x1="180" y1="476" x2="870" y2="476" stroke="#9ff" stroke-width="4"/>
  <line x1="525" y1="304" x2="525" y2="476" stroke="#9ff" stroke-width="4"/>
  <line x1="525" y1="230" x2="525" y2="242" stroke="#9ff" stroke-width="4"/>
  <line x1="525" y1="550" x2="525" y2="538" stroke="#9ff" stroke-width="4"/>
  <rect x="180" y="384" width="690" height="12" fill="#f8fafc"/>
  <path d="M180 384H870M180 388H870M180 392H870M180 396H870" stroke="#cbd5e1" stroke-width="1.2"/>
  <path d="M220 382V398M265 382V398M310 382V398M355 382V398M400 382V398M445 382V398M490 382V398M535 382V398M580 382V398M625 382V398M670 382V398M715 382V398M760 382V398M805 382V398M850 382V398" stroke="#e2e8f0" stroke-width="1.2"/>
  <rect x="174" y="368" width="8" height="44" rx="3" fill="#d1d5db"/>
  <rect x="868" y="368" width="8" height="44" rx="3" fill="#d1d5db"/>
</g>
<g transform="translate(965 160) rotate(18)">
  <ellipse cx="120" cy="175" rx="94" ry="120" fill="none" stroke="#fff" stroke-width="14"/>
  <g clip-path="url(#racketHead)">
    <path d="M48 68V282M72 62V288M96 58V292M120 56V294M144 58V292M168 62V288M192 68V282" stroke="#cbd5e1" stroke-width="2" opacity="0.9"/>
    <path d="M34 106H206M30 136H210M28 166H212M30 196H210M34 226H206" stroke="#cbd5e1" stroke-width="2" opacity="0.9"/>
  </g>
  <path d="M46 248C66 270 86 292 110 334" stroke="#ffffff" stroke-width="14" stroke-linecap="round" fill="none" opacity="1"/>
  <path d="M194 248C174 270 154 292 130 334" stroke="#ffffff" stroke-width="14" stroke-linecap="round" fill="none" opacity="1"/>
  <rect x="108" y="334" width="24" height="134" rx="12" fill="#ff9f1a"/>
</g>
<g transform="translate(1160 620)">
  <circle cx="0" cy="0" r="48" fill="#c8ff2c"/>
  <path d="M-36 -12C-22 -28 22 -28 36 -12" stroke="#fff" stroke-width="5" fill="none"/>
  <path d="M-36 12C-22 28 22 28 36 12" stroke="#fff" stroke-width="5" fill="none"/>
</g>
</svg>